<svg width="40" height="28" viewBox="0 0 40 28" fill="none" xmlns="http://www.w3.org/2000/svg">
<path fill-rule="evenodd" clip-rule="evenodd" d="M0 3.36C0 1.50432 1.50432 0 3.36 0H35.84C37.6957 0 39.2 1.50432 39.2 3.36V24.64C39.2 26.4957 37.6957 28 35.84 28H3.36C1.50432 28 0 26.4957 0 24.64V3.36ZM8.8357 16.6136C9.15513 16.2357 9.72045 16.1883 10.0984 16.5077C13.329 19.2382 16.5335 20.538 19.6525 20.538C22.7698 20.538 25.9368 19.2396 29.0945 16.5138C29.4691 16.1904 30.0349 16.2319 30.3582 16.6065C30.6816 16.9811 30.6401 17.5469 30.2655 17.8702C26.8712 20.8004 23.3041 22.33 19.6525 22.33C16.0025 22.33 12.403 20.8018 8.9416 17.8763C8.56366 17.5569 8.51628 16.9916 8.8357 16.6136ZM26.8472 11.116C26.7538 11.0226 26.5998 10.976 26.3852 10.976C25.7504 10.976 25.1858 10.934 24.6912 10.85C25.1578 9.58065 25.3912 8.40935 25.3912 7.336C25.3912 6.58935 25.2138 6.00135 24.8592 5.572C24.5138 5.14266 24.0424 4.928 23.4452 4.928C22.9598 4.928 22.5164 5.054 22.1152 5.306C21.7232 5.558 21.4104 5.94065 21.1772 6.454C20.9532 6.958 20.8412 7.57865 20.8412 8.316C20.8412 9.05335 20.9858 9.70665 21.2752 10.276C21.5644 10.836 21.9938 11.2934 22.5632 11.648C22.0872 12.6654 21.5644 13.51 20.9952 14.182C20.4258 14.854 19.8984 15.19 19.4132 15.19C18.9372 15.19 18.5778 14.8214 18.3352 14.084C18.1018 13.3374 17.9852 12.25 17.9852 10.822C17.9852 9.45935 18.1252 7.938 18.4052 6.258C18.4238 6.10865 18.4332 6.006 18.4332 5.95C18.4332 5.418 18.1252 5.152 17.5092 5.152C17.1358 5.152 16.8698 5.24066 16.7112 5.418C16.5618 5.586 16.4452 5.91265 16.3612 6.398C16.1278 7.70465 16.0112 9.17935 16.0112 10.822C16.0112 12.7446 16.2492 14.2706 16.7252 15.4C17.2012 16.5294 17.9244 17.094 18.8952 17.094C19.8378 17.094 20.7758 16.6366 21.7092 15.722C22.6518 14.798 23.4544 13.6406 24.1172 12.25C24.6958 12.3806 25.3584 12.4366 26.1052 12.418C26.4132 12.4086 26.6372 12.3106 26.7772 12.124C26.9264 11.9374 27.0012 11.7226 27.0012 11.48C27.0012 11.3306 26.9498 11.2094 26.8472 11.116ZM23.1372 10.248C22.5492 9.80935 22.2552 9.13265 22.2552 8.218C22.2552 7.67665 22.3344 7.26135 22.4932 6.972C22.6518 6.67335 22.8572 6.524 23.1092 6.524C23.2864 6.524 23.4264 6.61735 23.5292 6.804C23.6318 6.98135 23.6832 7.266 23.6832 7.658C23.6832 8.33935 23.5012 9.20265 23.1372 10.248Z" fill="white"/>
</svg>
