<svg width="1000" height="500" viewBox="0 0 1000 500" fill="none" xmlns="http://www.w3.org/2000/svg">
<path fill-rule="evenodd" clip-rule="evenodd" d="M0 60C0 26.863 26.863 0 60 0H639.996C673.136 0 699.996 26.863 699.996 60V440C699.996 473.137 673.136 500 639.996 500H60C26.863 500 0 473.137 0 440V60ZM157.78 296.672C163.484 289.923 173.579 289.076 180.328 294.78C238.018 343.539 295.236 366.75 350.936 366.75C406.606 366.75 463.156 343.564 519.546 294.889C526.236 289.114 536.336 289.856 542.116 296.545C547.886 303.234 547.146 313.337 540.456 319.111C479.846 371.436 416.146 398.75 350.936 398.75C285.759 398.75 221.481 371.461 159.671 319.22C152.922 313.516 152.076 303.421 157.78 296.672ZM479.416 198.5C477.746 196.833 474.996 196 471.166 196C459.826 196 449.746 195.25 440.916 193.75C449.246 171.083 453.416 150.167 453.416 131C453.416 117.667 450.246 107.167 443.916 99.5C437.746 91.833 429.326 88 418.666 88C409.996 88 402.076 90.25 394.916 94.75C387.916 99.25 382.326 106.083 378.166 115.25C374.166 124.25 372.166 135.333 372.166 148.5C372.166 161.667 374.746 173.333 379.916 183.5C385.076 193.5 392.746 201.667 402.916 208C394.416 226.167 385.076 241.25 374.916 253.25C364.746 265.25 355.326 271.25 346.666 271.25C338.166 271.25 331.746 264.667 327.416 251.5C323.246 238.167 321.166 218.75 321.166 193.25C321.166 168.917 323.666 141.75 328.666 111.75C328.996 109.083 329.166 107.25 329.166 106.25C329.166 96.75 323.666 92 312.666 92C305.996 92 301.246 93.583 298.416 96.75C295.746 99.75 293.666 105.583 292.166 114.25C287.996 137.583 285.913 163.917 285.913 193.25C285.913 227.583 290.163 254.833 298.666 275C307.166 295.167 320.076 305.25 337.416 305.25C354.246 305.25 370.996 297.083 387.666 280.75C404.496 264.25 418.826 243.583 430.666 218.75C440.996 221.083 452.826 222.083 466.166 221.75C471.666 221.583 475.666 219.833 478.166 216.5C480.826 213.167 482.166 209.333 482.166 205C482.166 202.333 481.246 200.167 479.416 198.5ZM413.166 183C402.666 175.167 397.416 163.083 397.416 146.75C397.416 137.083 398.826 129.667 401.666 124.5C404.496 119.167 408.166 116.5 412.666 116.5C415.826 116.5 418.326 118.167 420.166 121.5C421.996 124.667 422.916 129.75 422.916 136.75C422.916 148.917 419.666 164.333 413.166 183Z" fill="white"/>
<path d="M719.996 149.823C719.996 120.716 740.896 95.8071 769.556 90.7391L929.556 62.4541C966.296 55.9581 999.996 84.2221 999.996 121.538V378.211C999.996 415.61 966.156 443.896 929.346 437.258L769.346 408.401C740.786 403.248 719.996 378.383 719.996 349.353V149.823Z" fill="white"/>
</svg>
