<svg width="3582" height="500" viewBox="0 0 3582 500" fill="none" xmlns="http://www.w3.org/2000/svg">
<path fill-rule="evenodd" clip-rule="evenodd" d="M0.44397 60C0.44397 26.863 27.307 0 60.444 0H640.44C673.58 0 700.44 26.863 700.44 60V440C700.44 473.137 673.58 500 640.44 500H60.444C27.307 500 0.44397 473.137 0.44397 440V60ZM158.224 296.672C163.928 289.923 174.023 289.076 180.772 294.78C238.462 343.539 295.68 366.75 351.38 366.75C407.05 366.75 463.6 343.564 519.99 294.889C526.68 289.114 536.78 289.856 542.56 296.545C548.33 303.234 547.59 313.337 540.9 319.111C480.29 371.436 416.59 398.75 351.38 398.75C286.203 398.75 221.925 371.461 160.115 319.22C153.366 313.516 152.52 303.421 158.224 296.672ZM479.86 198.5C478.19 196.833 475.44 196 471.61 196C460.27 196 450.19 195.25 441.36 193.75C449.69 171.083 453.86 150.167 453.86 131C453.86 117.667 450.69 107.167 444.36 99.5C438.19 91.833 429.77 88 419.11 88C410.44 88 402.52 90.25 395.36 94.75C388.36 99.25 382.77 106.083 378.61 115.25C374.61 124.25 372.61 135.333 372.61 148.5C372.61 161.667 375.19 173.333 380.36 183.5C385.52 193.5 393.19 201.667 403.36 208C394.86 226.167 385.52 241.25 375.36 253.25C365.19 265.25 355.77 271.25 347.11 271.25C338.61 271.25 332.19 264.667 327.86 251.5C323.69 238.167 321.61 218.75 321.61 193.25C321.61 168.917 324.11 141.75 329.11 111.75C329.44 109.083 329.61 107.25 329.61 106.25C329.61 96.75 324.11 92 313.11 92C306.44 92 301.69 93.583 298.86 96.75C296.19 99.75 294.11 105.583 292.61 114.25C288.44 137.583 286.357 163.917 286.357 193.25C286.357 227.583 290.607 254.833 299.11 275C307.61 295.167 320.52 305.25 337.86 305.25C354.69 305.25 371.44 297.083 388.11 280.75C404.94 264.25 419.27 243.583 431.11 218.75C441.44 221.083 453.27 222.083 466.61 221.75C472.11 221.583 476.11 219.833 478.61 216.5C481.27 213.167 482.61 209.333 482.61 205C482.61 202.333 481.69 200.167 479.86 198.5ZM413.61 183C403.11 175.167 397.86 163.083 397.86 146.75C397.86 137.083 399.27 129.667 402.11 124.5C404.94 119.167 408.61 116.5 413.11 116.5C416.27 116.5 418.77 118.167 420.61 121.5C422.44 124.667 423.36 129.75 423.36 136.75C423.36 148.917 420.11 164.333 413.61 183Z" fill="white"/>
<path d="M720.44 149.823C720.44 120.716 741.34 95.8071 770 90.7391L930 62.4541C966.74 55.9581 1000.44 84.2221 1000.44 121.538V378.211C1000.44 415.61 966.6 443.896 929.79 437.258L769.79 408.401C741.23 403.248 720.44 378.383 720.44 349.353V149.823Z" fill="white"/>
<path d="M3488.84 348.99V89.0701H3538.62V348.99H3488.84ZM3445.9 209.15V165.45H3581.56V209.15H3445.9Z" fill="white"/>
<path d="M3302.66 348.99V165.45H3352.44V348.99H3302.66ZM3352.44 247.53L3333.06 234.61C3335.34 212.063 3341.92 194.33 3352.82 181.41C3363.71 168.237 3379.42 161.65 3399.94 161.65C3408.8 161.65 3416.78 163.17 3423.88 166.21C3430.97 168.997 3437.43 173.683 3443.26 180.27L3412.1 215.99C3409.31 212.95 3405.89 210.67 3401.84 209.15C3398.04 207.63 3393.6 206.87 3388.54 206.87C3377.9 206.87 3369.16 210.29 3362.32 217.13C3355.73 223.717 3352.44 233.85 3352.44 247.53Z" fill="white"/>
<path d="M3172.57 352.79C3154.08 352.79 3137.36 348.61 3122.41 340.25C3107.72 331.637 3095.94 320.11 3087.07 305.67C3078.46 290.977 3074.15 274.637 3074.15 256.65C3074.15 238.663 3078.46 222.577 3087.07 208.39C3095.68 193.95 3107.46 182.55 3122.41 174.19C3137.36 165.577 3153.95 161.27 3172.19 161.27C3190.94 161.27 3207.66 165.577 3222.35 174.19C3237.3 182.55 3249.08 193.95 3257.69 208.39C3266.3 222.577 3270.61 238.663 3270.61 256.65C3270.61 274.637 3266.3 290.977 3257.69 305.67C3249.08 320.11 3237.3 331.637 3222.35 340.25C3207.66 348.61 3191.06 352.79 3172.57 352.79ZM3172.19 306.43C3181.56 306.43 3189.8 304.403 3196.89 300.35C3204.24 296.043 3209.81 290.217 3213.61 282.87C3217.66 275.27 3219.69 266.657 3219.69 257.03C3219.69 247.403 3217.66 238.917 3213.61 231.57C3209.56 224.223 3203.98 218.523 3196.89 214.47C3189.8 210.163 3181.56 208.01 3172.19 208.01C3163.07 208.01 3154.96 210.163 3147.87 214.47C3140.78 218.523 3135.2 224.223 3131.15 231.57C3127.1 238.917 3125.07 247.403 3125.07 257.03C3125.07 266.657 3127.1 275.27 3131.15 282.87C3135.2 290.217 3140.78 296.043 3147.87 300.35C3154.96 304.403 3163.07 306.43 3172.19 306.43Z" fill="white"/>
<path d="M2964.75 352.79C2951.58 352.79 2939.67 350.13 2929.03 344.81C2918.39 339.237 2909.9 331.763 2903.57 322.39C2897.24 313.017 2893.82 302.25 2893.31 290.09V225.11C2893.82 212.95 2897.24 202.183 2903.57 192.81C2910.16 183.183 2918.64 175.583 2929.03 170.01C2939.67 164.437 2951.58 161.65 2964.75 161.65C2981.72 161.65 2996.92 165.83 3010.35 174.19C3023.78 182.55 3034.29 193.95 3041.89 208.39C3049.74 222.83 3053.67 239.17 3053.67 257.41C3053.67 275.397 3049.74 291.61 3041.89 306.05C3034.29 320.49 3023.78 331.89 3010.35 340.25C2996.92 348.61 2981.72 352.79 2964.75 352.79ZM2956.01 306.81C2965.13 306.81 2973.24 304.783 2980.33 300.73C2987.42 296.423 2992.87 290.597 2996.67 283.25C3000.72 275.65 3002.75 266.91 3002.75 257.03C3002.75 247.403 3000.72 238.917 2996.67 231.57C2992.87 223.97 2987.42 218.143 2980.33 214.09C2973.24 209.783 2965.13 207.63 2956.01 207.63C2947.14 207.63 2939.16 209.783 2932.07 214.09C2924.98 218.143 2919.4 223.97 2915.35 231.57C2911.55 238.917 2909.65 247.403 2909.65 257.03C2909.65 266.91 2911.55 275.65 2915.35 283.25C2919.4 290.597 2924.85 296.423 2931.69 300.73C2938.78 304.783 2946.89 306.81 2956.01 306.81ZM2862.91 425.75V165.45H2912.69V213.71L2904.33 258.17L2912.31 302.63V425.75H2862.91Z" fill="white"/>
<path d="M2741.35 352.79C2728.18 352.79 2716.27 350.13 2705.63 344.81C2694.99 339.237 2686.51 331.763 2680.17 322.39C2673.84 313.017 2670.42 302.25 2669.91 290.09V225.11C2670.42 212.95 2673.84 202.183 2680.17 192.81C2686.76 183.183 2695.25 175.583 2705.63 170.01C2716.27 164.437 2728.18 161.65 2741.35 161.65C2758.33 161.65 2773.53 165.83 2786.95 174.19C2800.38 182.55 2810.89 193.95 2818.49 208.39C2826.35 222.83 2830.27 239.17 2830.27 257.41C2830.27 275.397 2826.35 291.61 2818.49 306.05C2810.89 320.49 2800.38 331.89 2786.95 340.25C2773.53 348.61 2758.33 352.79 2741.35 352.79ZM2732.61 306.81C2741.73 306.81 2749.84 304.783 2756.93 300.73C2764.03 296.423 2769.47 290.597 2773.27 283.25C2777.33 275.65 2779.35 266.91 2779.35 257.03C2779.35 247.403 2777.33 238.917 2773.27 231.57C2769.47 223.97 2764.03 218.143 2756.93 214.09C2749.84 209.783 2741.73 207.63 2732.61 207.63C2723.75 207.63 2715.77 209.783 2708.67 214.09C2701.58 218.143 2696.01 223.97 2691.95 231.57C2688.15 238.917 2686.25 247.403 2686.25 257.03C2686.25 266.91 2688.15 275.65 2691.95 283.25C2696.01 290.597 2701.45 296.423 2708.29 300.73C2715.39 304.783 2723.49 306.81 2732.61 306.81ZM2639.51 425.75V165.45H2689.29V213.71L2680.93 258.17L2688.91 302.63V425.75H2639.51Z" fill="white"/>
<path d="M2517.03 352.79C2500.82 352.79 2486.38 349.37 2473.71 342.53C2461.3 335.69 2451.54 326.19 2444.45 314.03C2437.36 301.87 2433.81 287.81 2433.81 271.85V165.45H2483.97V270.71C2483.97 278.31 2485.24 284.897 2487.77 290.47C2490.3 295.79 2494.1 299.843 2499.17 302.63C2504.24 305.417 2510.19 306.81 2517.03 306.81C2527.42 306.81 2535.52 303.643 2541.35 297.31C2547.18 290.977 2550.09 282.11 2550.09 270.71V165.45H2599.87V271.85C2599.87 288.063 2596.32 302.25 2589.23 314.41C2582.39 326.57 2572.64 336.07 2559.97 342.91C2547.56 349.497 2533.24 352.79 2517.03 352.79Z" fill="white"/>
<path d="M2305.24 352.79C2283.71 352.79 2265.22 349.117 2249.76 341.77C2234.56 334.423 2220.76 323.403 2208.34 308.71L2242.54 274.51C2250.4 284.897 2259.52 293.003 2269.9 298.83C2280.29 304.403 2292.96 307.19 2307.9 307.19C2321.33 307.19 2331.97 304.53 2339.82 299.21C2347.93 293.89 2351.98 286.543 2351.98 277.17C2351.98 269.063 2349.7 262.477 2345.14 257.41C2340.58 252.343 2334.5 248.037 2326.9 244.49C2319.56 240.943 2311.32 237.777 2302.2 234.99C2293.34 231.95 2284.34 228.53 2275.22 224.73C2266.36 220.93 2258.12 216.243 2250.52 210.67C2243.18 204.843 2237.22 197.497 2232.66 188.63C2228.1 179.51 2225.82 168.11 2225.82 154.43C2225.82 138.217 2229.75 124.41 2237.6 113.01C2245.46 101.61 2256.22 92.8699 2269.9 86.7899C2283.58 80.7099 2299.04 77.6699 2316.26 77.6699C2334.5 77.6699 2350.97 81.0899 2365.66 87.9299C2380.36 94.7699 2392.39 103.637 2401.76 114.53L2367.56 148.73C2359.71 140.117 2351.6 133.783 2343.24 129.73C2335.14 125.677 2325.89 123.65 2315.5 123.65C2303.6 123.65 2294.22 125.93 2287.38 130.49C2280.54 135.05 2277.12 141.637 2277.12 150.25C2277.12 157.597 2279.4 163.55 2283.96 168.11C2288.52 172.67 2294.48 176.597 2301.82 179.89C2309.42 183.183 2317.66 186.35 2326.52 189.39C2335.64 192.43 2344.64 195.85 2353.5 199.65C2362.62 203.45 2370.86 208.39 2378.2 214.47C2385.8 220.55 2391.88 228.403 2396.44 238.03C2401 247.403 2403.28 259.057 2403.28 272.99C2403.28 297.817 2394.54 317.323 2377.06 331.51C2359.58 345.697 2335.64 352.79 2305.24 352.79Z" fill="white"/>
<path d="M2092.32 352.79C2073.82 352.79 2057.1 348.61 2042.16 340.25C2027.46 331.637 2015.68 320.11 2006.82 305.67C1998.2 290.977 1993.9 274.637 1993.9 256.65C1993.9 238.663 1998.2 222.577 2006.82 208.39C2015.43 193.95 2027.21 182.55 2042.16 174.19C2057.1 165.577 2073.7 161.27 2091.94 161.27C2110.68 161.27 2127.4 165.577 2142.1 174.19C2157.04 182.55 2168.82 193.95 2177.44 208.39C2186.05 222.577 2190.36 238.663 2190.36 256.65C2190.36 274.637 2186.05 290.977 2177.44 305.67C2168.82 320.11 2157.04 331.637 2142.1 340.25C2127.4 348.61 2110.81 352.79 2092.32 352.79ZM2091.94 306.43C2101.31 306.43 2109.54 304.403 2116.64 300.35C2123.98 296.043 2129.56 290.217 2133.36 282.87C2137.41 275.27 2139.44 266.657 2139.44 257.03C2139.44 247.403 2137.41 238.917 2133.36 231.57C2129.3 224.223 2123.73 218.523 2116.64 214.47C2109.54 210.163 2101.31 208.01 2091.94 208.01C2082.82 208.01 2074.71 210.163 2067.62 214.47C2060.52 218.523 2054.95 224.223 2050.9 231.57C2046.84 238.917 2044.82 247.403 2044.82 257.03C2044.82 266.657 2046.84 275.27 2050.9 282.87C2054.95 290.217 2060.52 296.043 2067.62 300.35C2074.71 304.403 2082.82 306.43 2091.94 306.43Z" fill="white"/>
<path d="M1888.25 352.79C1869 352.79 1851.9 348.737 1836.95 340.63C1822 332.27 1810.1 320.87 1801.23 306.43C1792.62 291.99 1788.31 275.523 1788.31 257.03C1788.31 238.79 1792.49 222.577 1800.85 208.39C1809.46 193.95 1821.12 182.55 1835.81 174.19C1850.5 165.577 1866.84 161.27 1884.83 161.27C1902.56 161.27 1918.14 165.323 1931.57 173.43C1945.25 181.283 1955.89 192.177 1963.49 206.11C1971.34 219.79 1975.27 235.37 1975.27 252.85C1975.27 256.143 1975.02 259.563 1974.51 263.11C1974.26 266.403 1973.62 270.203 1972.61 274.51L1818.33 274.89V237.65L1949.43 237.27L1929.29 252.85C1928.78 241.957 1926.76 232.837 1923.21 225.49C1919.92 218.143 1914.98 212.57 1908.39 208.77C1902.06 204.717 1894.2 202.69 1884.83 202.69C1874.95 202.69 1866.34 204.97 1858.99 209.53C1851.64 213.837 1845.94 220.043 1841.89 228.15C1838.09 236.003 1836.19 245.377 1836.19 256.27C1836.19 267.417 1838.22 277.17 1842.27 285.53C1846.58 293.637 1852.66 299.97 1860.51 304.53C1868.36 308.837 1877.48 310.99 1887.87 310.99C1897.24 310.99 1905.73 309.47 1913.33 306.43C1920.93 303.137 1927.52 298.323 1933.09 291.99L1962.35 321.25C1953.48 331.637 1942.59 339.49 1929.67 344.81C1917 350.13 1903.2 352.79 1888.25 352.79Z" fill="white"/>
<path d="M1654.59 352.79C1637.62 352.79 1622.42 348.61 1608.99 340.25C1595.56 331.89 1584.92 320.49 1577.07 306.05C1569.47 291.61 1565.67 275.397 1565.67 257.41C1565.67 239.17 1569.47 222.83 1577.07 208.39C1584.92 193.95 1595.44 182.55 1608.61 174.19C1622.04 165.83 1637.36 161.65 1654.59 161.65C1667.76 161.65 1679.54 164.31 1689.93 169.63C1700.57 174.95 1709.06 182.423 1715.39 192.05C1721.98 201.423 1725.52 212.063 1726.03 223.97V289.33C1725.52 301.237 1722.1 312.003 1715.77 321.63C1709.44 331.257 1700.95 338.857 1690.31 344.43C1679.67 350.003 1667.76 352.79 1654.59 352.79ZM1662.95 306.81C1672.32 306.81 1680.43 304.783 1687.27 300.73C1694.36 296.423 1699.81 290.597 1703.61 283.25C1707.66 275.65 1709.69 266.91 1709.69 257.03C1709.69 247.403 1707.66 238.917 1703.61 231.57C1699.81 223.97 1694.36 218.143 1687.27 214.09C1680.43 209.783 1672.45 207.63 1663.33 207.63C1653.96 207.63 1645.72 209.783 1638.63 214.09C1631.79 218.397 1626.34 224.223 1622.29 231.57C1618.49 238.917 1616.59 247.403 1616.59 257.03C1616.59 266.91 1618.49 275.65 1622.29 283.25C1626.34 290.597 1631.92 296.423 1639.01 300.73C1646.1 304.783 1654.08 306.81 1662.95 306.81ZM1756.43 348.99H1707.03V299.59L1715.01 254.75L1706.65 210.67V74.25H1756.43V348.99Z" fill="white"/>
<path d="M1482.81 348.99V165.45H1532.97V348.99H1482.81ZM1507.89 135.81C1499.79 135.81 1493.07 133.15 1487.75 127.83C1482.43 122.257 1479.77 115.417 1479.77 107.31C1479.77 99.4571 1482.43 92.7431 1487.75 87.1701C1493.07 81.5971 1499.79 78.8101 1507.89 78.8101C1516.25 78.8101 1522.97 81.5971 1528.03 87.1701C1533.35 92.7431 1536.01 99.4571 1536.01 107.31C1536.01 115.417 1533.35 122.257 1528.03 127.83C1522.97 133.15 1516.25 135.81 1507.89 135.81Z" fill="white"/>
<path d="M1305.7 348.99L1200.44 81.8501H1256.3L1337.62 298.07H1315.96L1398.04 81.8501H1453.14L1346.74 348.99H1305.7Z" fill="white"/>
</svg>