<svg width="201" height="28" viewBox="0 0 201 28" fill="none" xmlns="http://www.w3.org/2000/svg">
<g clip-path="url(#clip0_3309_852)">
<path fill-rule="evenodd" clip-rule="evenodd" d="M0.0249023 3.36C0.0249023 1.50432 1.52922 0 3.3849 0H35.8649C37.7206 0 39.2249 1.50432 39.2249 3.36V24.64C39.2249 26.4957 37.7206 28 35.8649 28H3.3849C1.52922 28 0.0249023 26.4957 0.0249023 24.64V3.36ZM8.86061 16.6136C9.18003 16.2357 9.74535 16.1883 10.1233 16.5077C13.3539 19.2382 16.5584 20.538 19.6774 20.538C22.7948 20.538 25.9617 19.2396 29.1194 16.5138C29.494 16.1904 30.0598 16.2319 30.3831 16.6065C30.7065 16.9811 30.665 17.5469 30.2904 17.8702C26.8961 20.8004 23.329 22.33 19.6774 22.33C16.0274 22.33 12.4279 20.8018 8.9665 17.8763C8.58856 17.5569 8.54118 16.9916 8.86061 16.6136ZM26.8721 11.116C26.7787 11.0226 26.6247 10.976 26.4101 10.976C25.7754 10.976 25.2107 10.934 24.7161 10.85C25.1827 9.58065 25.4161 8.40935 25.4161 7.336C25.4161 6.58935 25.2387 6.00135 24.8841 5.572C24.5387 5.14266 24.0674 4.928 23.4701 4.928C22.9847 4.928 22.5414 5.054 22.1401 5.306C21.7481 5.558 21.4354 5.94065 21.2021 6.454C20.9781 6.958 20.8661 7.57865 20.8661 8.316C20.8661 9.05335 21.0107 9.70665 21.3001 10.276C21.5894 10.836 22.0187 11.2934 22.5881 11.648C22.1121 12.6654 21.5894 13.51 21.0201 14.182C20.4507 14.854 19.9234 15.19 19.4381 15.19C18.9621 15.19 18.6027 14.8214 18.3601 14.084C18.1267 13.3374 18.0101 12.25 18.0101 10.822C18.0101 9.45935 18.1501 7.938 18.4301 6.258C18.4487 6.10865 18.4581 6.006 18.4581 5.95C18.4581 5.418 18.1501 5.152 17.5341 5.152C17.1607 5.152 16.8947 5.24066 16.7361 5.418C16.5867 5.586 16.4701 5.91265 16.3861 6.398C16.1527 7.70465 16.0361 9.17935 16.0361 10.822C16.0361 12.7446 16.2741 14.2706 16.7501 15.4C17.2261 16.5294 17.9494 17.094 18.9201 17.094C19.8627 17.094 20.8007 16.6366 21.7341 15.722C22.6767 14.798 23.4794 13.6406 24.1421 12.25C24.7207 12.3806 25.3834 12.4366 26.1301 12.418C26.4381 12.4086 26.6621 12.3106 26.8021 12.124C26.9514 11.9374 27.0261 11.7226 27.0261 11.48C27.0261 11.3306 26.9747 11.2094 26.8721 11.116ZM23.1621 10.248C22.5741 9.80935 22.2801 9.13265 22.2801 8.218C22.2801 7.67665 22.3594 7.26135 22.5181 6.972C22.6767 6.67335 22.8821 6.524 23.1341 6.524C23.3114 6.524 23.4514 6.61735 23.5541 6.804C23.6567 6.98135 23.7081 7.266 23.7081 7.658C23.7081 8.33935 23.5261 9.20265 23.1621 10.248Z" fill="#0F172A"/>
<path d="M40.3447 8.38998C40.3447 6.75998 41.5146 5.36506 43.1198 5.0813L52.0798 3.4973C54.1375 3.13351 56.0245 4.71633 56.0245 6.80602V21.1797C56.0245 23.274 54.1295 24.8581 52.0683 24.4863L43.1083 22.8703C41.5085 22.5818 40.3447 21.1893 40.3447 19.5637V8.38998Z" fill="#0F172A"/>
<path d="M195.375 19.5294V4.97388H198.163V19.5294H195.375ZM192.97 11.6984V9.25116H200.567V11.6984H192.97Z" fill="#0F172A"/>
<path d="M184.949 19.5294V9.25113H187.737V19.5294H184.949ZM187.737 13.8476L186.652 13.1241C186.779 11.8615 187.148 10.8684 187.758 10.1449C188.368 9.4072 189.248 9.03833 190.397 9.03833C190.893 9.03833 191.34 9.12345 191.738 9.29369C192.135 9.44976 192.496 9.71218 192.823 10.0811L191.078 12.0814C190.922 11.9111 190.73 11.7834 190.503 11.6983C190.291 11.6132 190.042 11.5707 189.759 11.5707C189.163 11.5707 188.673 11.7622 188.29 12.1452C187.921 12.5141 187.737 13.0815 187.737 13.8476Z" fill="#0F172A"/>
<path d="M177.664 19.7422C176.628 19.7422 175.692 19.5081 174.855 19.04C174.032 18.5576 173.373 17.9121 172.876 17.1035C172.394 16.2807 172.152 15.3656 172.152 14.3584C172.152 13.3511 172.394 12.4503 172.876 11.6558C173.358 10.8472 174.018 10.2088 174.855 9.74061C175.692 9.25828 176.621 9.01709 177.643 9.01709C178.693 9.01709 179.629 9.25828 180.452 9.74061C181.289 10.2088 181.948 10.8472 182.431 11.6558C182.913 12.4503 183.154 13.3511 183.154 14.3584C183.154 15.3656 182.913 16.2807 182.431 17.1035C181.948 17.9121 181.289 18.5576 180.452 19.04C179.629 19.5081 178.699 19.7422 177.664 19.7422ZM177.643 17.146C178.167 17.146 178.629 17.0325 179.026 16.8056C179.437 16.5644 179.749 16.2381 179.962 15.8267C180.189 15.4011 180.303 14.9188 180.303 14.3796C180.303 13.8405 180.189 13.3653 179.962 12.9539C179.735 12.5425 179.423 12.2233 179.026 11.9963C178.629 11.7551 178.167 11.6345 177.643 11.6345C177.132 11.6345 176.678 11.7551 176.281 11.9963C175.884 12.2233 175.571 12.5425 175.344 12.9539C175.118 13.3653 175.004 13.8405 175.004 14.3796C175.004 14.9188 175.118 15.4011 175.344 15.8267C175.571 16.2381 175.884 16.5644 176.281 16.8056C176.678 17.0325 177.132 17.146 177.643 17.146Z" fill="#0F172A"/>
<path d="M166.026 19.7422C165.288 19.7422 164.621 19.5932 164.025 19.2953C163.43 18.9832 162.954 18.5647 162.6 18.0398C162.245 17.5149 162.054 16.9119 162.025 16.231V12.5921C162.054 11.9111 162.245 11.3082 162.6 10.7833C162.969 10.2442 163.444 9.81858 164.025 9.50649C164.621 9.1944 165.288 9.03833 166.026 9.03833C166.976 9.03833 167.827 9.27241 168.579 9.74057C169.331 10.2087 169.92 10.8471 170.346 11.6558C170.785 12.4644 171.005 13.3795 171.005 14.4009C171.005 15.4082 170.785 16.3161 170.346 17.1247C169.92 17.9334 169.331 18.5718 168.579 19.0399C167.827 19.5081 166.976 19.7422 166.026 19.7422ZM165.536 17.1673C166.047 17.1673 166.501 17.0538 166.898 16.8268C167.295 16.5856 167.601 16.2594 167.813 15.8479C168.04 15.4223 168.154 14.9329 168.154 14.3796C168.154 13.8405 168.04 13.3653 167.813 12.9539C167.601 12.5283 167.295 12.2019 166.898 11.975C166.501 11.7338 166.047 11.6132 165.536 11.6132C165.04 11.6132 164.593 11.7338 164.196 11.975C163.799 12.2019 163.486 12.5283 163.259 12.9539C163.047 13.3653 162.94 13.8405 162.94 14.3796C162.94 14.9329 163.047 15.4223 163.259 15.8479C163.486 16.2594 163.791 16.5856 164.174 16.8268C164.571 17.0538 165.026 17.1673 165.536 17.1673ZM160.323 23.8279V9.25113H163.11V11.9537L162.642 14.4435L163.089 16.9332V23.8279H160.323Z" fill="#0F172A"/>
<path d="M153.516 19.7422C152.778 19.7422 152.111 19.5932 151.515 19.2953C150.919 18.9832 150.444 18.5647 150.089 18.0398C149.735 17.5149 149.543 16.9119 149.515 16.231V12.5921C149.543 11.9111 149.735 11.3082 150.089 10.7833C150.458 10.2442 150.934 9.81858 151.515 9.50649C152.111 9.1944 152.778 9.03833 153.516 9.03833C154.466 9.03833 155.318 9.27241 156.069 9.74057C156.821 10.2087 157.41 10.8471 157.835 11.6558C158.276 12.4644 158.495 13.3795 158.495 14.4009C158.495 15.4082 158.276 16.3161 157.835 17.1247C157.41 17.9334 156.821 18.5718 156.069 19.0399C155.318 19.5081 154.466 19.7422 153.516 19.7422ZM153.026 17.1673C153.537 17.1673 153.991 17.0538 154.388 16.8268C154.786 16.5856 155.09 16.2594 155.303 15.8479C155.53 15.4223 155.644 14.9329 155.644 14.3796C155.644 13.8405 155.53 13.3653 155.303 12.9539C155.09 12.5283 154.786 12.2019 154.388 11.975C153.991 11.7338 153.537 11.6132 153.026 11.6132C152.53 11.6132 152.083 11.7338 151.685 11.975C151.288 12.2019 150.976 12.5283 150.749 12.9539C150.536 13.3653 150.43 13.8405 150.43 14.3796C150.43 14.9329 150.536 15.4223 150.749 15.8479C150.976 16.2594 151.281 16.5856 151.664 16.8268C152.062 17.0538 152.515 17.1673 153.026 17.1673ZM147.812 23.8279V9.25113H150.6V11.9537L150.132 14.4435L150.579 16.9332V23.8279H147.812Z" fill="#0F172A"/>
<path d="M140.954 19.7423C140.046 19.7423 139.237 19.5507 138.528 19.1677C137.833 18.7847 137.286 18.2527 136.889 17.5717C136.492 16.8907 136.293 16.1034 136.293 15.2096V9.25122H139.102V15.1458C139.102 15.5714 139.174 15.9403 139.315 16.2523C139.457 16.5503 139.67 16.7772 139.954 16.9333C140.238 17.0894 140.571 17.1674 140.954 17.1674C141.536 17.1674 141.989 16.99 142.316 16.6354C142.642 16.2807 142.805 15.7842 142.805 15.1458V9.25122H145.593V15.2096C145.593 16.1175 145.394 16.912 144.997 17.593C144.614 18.2739 144.068 18.8059 143.358 19.189C142.663 19.5579 141.862 19.7423 140.954 19.7423Z" fill="#0F172A"/>
<path d="M129.093 19.7422C127.888 19.7422 126.852 19.5365 125.987 19.125C125.135 18.7136 124.363 18.0965 123.667 17.2737L125.582 15.3585C126.022 15.9402 126.533 16.3941 127.114 16.7204C127.696 17.0325 128.406 17.1886 129.242 17.1886C129.994 17.1886 130.59 17.0396 131.03 16.7417C131.484 16.4438 131.711 16.0323 131.711 15.5074C131.711 15.0535 131.583 14.6846 131.328 14.4009C131.072 14.1171 130.732 13.876 130.306 13.6774C129.895 13.4787 129.434 13.3014 128.923 13.1454C128.427 12.9751 127.923 12.7836 127.412 12.5708C126.916 12.358 126.455 12.0955 126.029 11.7834C125.618 11.4571 125.284 11.0458 125.029 10.5492C124.774 10.0385 124.646 9.40009 124.646 8.63401C124.646 7.72608 124.866 6.95289 125.306 6.31449C125.746 5.67609 126.348 5.18665 127.114 4.84617C127.88 4.50569 128.746 4.33545 129.711 4.33545C130.732 4.33545 131.654 4.52697 132.477 4.91001C133.3 5.29305 133.974 5.7896 134.499 6.39961L132.583 8.31481C132.144 7.83248 131.69 7.47778 131.221 7.25081C130.768 7.02384 130.25 6.91033 129.668 6.91033C129.002 6.91033 128.476 7.03801 128.093 7.29337C127.71 7.54873 127.519 7.9176 127.519 8.39993C127.519 8.81136 127.646 9.14473 127.902 9.40009C128.157 9.65545 128.491 9.87536 128.902 10.0598C129.327 10.2442 129.789 10.4215 130.285 10.5918C130.796 10.762 131.3 10.9535 131.796 11.1663C132.307 11.3791 132.768 11.6558 133.179 11.9962C133.605 12.3367 133.945 12.7765 134.201 13.3156C134.456 13.8405 134.584 14.4931 134.584 15.2734C134.584 16.6637 134.094 17.756 133.115 18.5505C132.136 19.345 130.796 19.7422 129.093 19.7422Z" fill="#0F172A"/>
<path d="M117.17 19.7422C116.134 19.7422 115.197 19.5081 114.361 19.04C113.538 18.5576 112.878 17.9121 112.382 17.1035C111.899 16.2807 111.658 15.3656 111.658 14.3584C111.658 13.3511 111.899 12.4503 112.382 11.6558C112.864 10.8472 113.524 10.2088 114.361 9.74061C115.197 9.25828 116.127 9.01709 117.148 9.01709C118.198 9.01709 119.134 9.25828 119.957 9.74061C120.794 10.2088 121.454 10.8472 121.936 11.6558C122.419 12.4503 122.66 13.3511 122.66 14.3584C122.66 15.3656 122.419 16.2807 121.936 17.1035C121.454 17.9121 120.794 18.5576 119.957 19.04C119.134 19.5081 118.205 19.7422 117.17 19.7422ZM117.148 17.146C117.673 17.146 118.134 17.0325 118.532 16.8056C118.943 16.5644 119.255 16.2381 119.468 15.8267C119.695 15.4011 119.808 14.9188 119.808 14.3796C119.808 13.8405 119.695 13.3653 119.468 12.9539C119.241 12.5425 118.929 12.2233 118.532 11.9963C118.134 11.7551 117.673 11.6345 117.148 11.6345C116.638 11.6345 116.184 11.7551 115.787 11.9963C115.389 12.2233 115.077 12.5425 114.85 12.9539C114.623 13.3653 114.51 13.8405 114.51 14.3796C114.51 14.9188 114.623 15.4011 114.85 15.8267C115.077 16.2381 115.389 16.5644 115.787 16.8056C116.184 17.0325 116.638 17.146 117.148 17.146Z" fill="#0F172A"/>
<path d="M105.742 19.7422C104.664 19.7422 103.707 19.5152 102.869 19.0613C102.032 18.5931 101.366 17.9547 100.869 17.146C100.387 16.3374 100.146 15.4153 100.146 14.3796C100.146 13.3582 100.38 12.4503 100.848 11.6558C101.33 10.8472 101.983 10.2088 102.806 9.74061C103.628 9.25828 104.543 9.01709 105.551 9.01709C106.544 9.01709 107.416 9.24406 108.168 9.69805C108.934 10.1378 109.53 10.7479 109.956 11.5281C110.395 12.2942 110.615 13.1667 110.615 14.1456C110.615 14.33 110.601 14.5215 110.573 14.7201C110.559 14.9045 110.523 15.1173 110.466 15.3585L101.827 15.3798V13.2944L109.168 13.2731L108.04 14.1456C108.012 13.5356 107.899 13.0248 107.7 12.6134C107.516 12.202 107.239 11.8899 106.87 11.6771C106.516 11.4501 106.075 11.3366 105.551 11.3366C104.997 11.3366 104.515 11.4643 104.104 11.7196C103.692 11.9608 103.373 12.3084 103.146 12.7624C102.933 13.2021 102.827 13.7271 102.827 14.3371C102.827 14.9613 102.94 15.5075 103.167 15.9756C103.409 16.4296 103.749 16.7843 104.189 17.0396C104.628 17.2808 105.139 17.4014 105.721 17.4014C106.246 17.4014 106.721 17.3163 107.147 17.146C107.572 16.9616 107.941 16.6921 108.253 16.3374L109.892 17.976C109.395 18.5576 108.785 18.9974 108.062 19.2953C107.352 19.5932 106.579 19.7422 105.742 19.7422Z" fill="#0F172A"/>
<path d="M92.6573 19.7423C91.7069 19.7423 90.8557 19.5082 90.1037 19.04C89.3516 18.5719 88.7557 17.9335 88.3161 17.1248C87.8905 16.3162 87.6777 15.4083 87.6777 14.401C87.6777 13.3796 87.8905 12.4645 88.3161 11.6559C88.7557 10.8472 89.3449 10.2088 90.0824 9.74068C90.8345 9.27252 91.6924 9.03844 92.6573 9.03844C93.3948 9.03844 94.0545 9.1874 94.6363 9.48532C95.2321 9.78324 95.7076 10.2017 96.0621 10.7408C96.4311 11.2657 96.6293 11.8616 96.6579 12.5284V16.1885C96.6293 16.8553 96.4378 17.4582 96.0833 17.9973C95.7289 18.5364 95.2534 18.962 94.6576 19.2741C94.0617 19.5862 93.3948 19.7423 92.6573 19.7423ZM93.1254 17.1674C93.6501 17.1674 94.1043 17.0539 94.4873 16.8269C94.8844 16.5857 95.1896 16.2595 95.4024 15.848C95.6292 15.4224 95.7428 14.933 95.7428 14.3797C95.7428 13.8406 95.6292 13.3654 95.4024 12.954C95.1896 12.5284 94.8844 12.2021 94.4873 11.9751C94.1043 11.7339 93.6574 11.6133 93.1467 11.6133C92.622 11.6133 92.1605 11.7339 91.7635 11.9751C91.3805 12.2163 91.0753 12.5425 90.8485 12.954C90.6357 13.3654 90.5293 13.8406 90.5293 14.3797C90.5293 14.933 90.6357 15.4224 90.8485 15.848C91.0753 16.2595 91.3877 16.5857 91.7848 16.8269C92.1818 17.0539 92.6287 17.1674 93.1254 17.1674ZM98.3603 19.5295H95.5939V16.7631L96.0408 14.252L95.5726 11.7836V4.14404H98.3603V19.5295Z" fill="#0F172A"/>
<path d="M83.0374 19.5295V9.25125H85.8464V19.5295H83.0374ZM84.4419 7.59141C83.9883 7.59141 83.612 7.44245 83.3141 7.14453C83.0161 6.83244 82.8672 6.4494 82.8672 5.99541C82.8672 5.55562 83.0161 5.17968 83.3141 4.86757C83.612 4.55546 83.9883 4.39941 84.4419 4.39941C84.9101 4.39941 85.2864 4.55546 85.5697 4.86757C85.8677 5.17968 86.0166 5.55562 86.0166 5.99541C86.0166 6.4494 85.8677 6.83244 85.5697 7.14453C85.2864 7.44245 84.9101 7.59141 84.4419 7.59141Z" fill="#0F172A"/>
<path d="M73.1192 19.5294L67.2246 4.56958H70.3528L74.9067 16.6779H73.6937L78.2902 4.56958H81.3758L75.4174 19.5294H73.1192Z" fill="#0F172A"/>
</g>
<defs>
<clipPath id="clip0_3309_852">
<rect width="200.592" height="28" fill="white"/>
</clipPath>
</defs>
</svg>
